<?xml version="1.0" encoding="UTF-8"?>
<svg width="337px" height="348px" viewBox="0 0 337 348" version="1.1" xmlns="http://www.w3.org/2000/svg" xmlns:xlink="http://www.w3.org/1999/xlink">
    <!-- Generator: Sketch 64 (93537) - https://sketch.com -->
    <title>Group 124</title>
    <desc>Created with Sketch.</desc>
    <g id="Page-1" stroke="none" stroke-width="1" fill="none" fill-rule="evenodd">
        <g id="Desktop-Copy" transform="translate(-126.000000, -197.000000)">
            <g id="Group-124" transform="translate(126.000000, 197.000000)">
                <path d="M141.6842,42.6164 C142.5382,42.2524 142.7882,41.6964 142.8402,40.7914 C143.1632,35.1684 143.5652,29.5504 143.9212,23.9294 C144.0752,21.4834 144.0522,21.5014 146.5882,21.7724 C154.7512,22.6454 162.9162,23.5024 171.0872,24.3654 C171.0692,23.7684 170.5802,23.5894 170.2572,23.2864 C163.1182,16.5784 164.8142,6.1304 173.7152,2.0014 C179.8422,-0.8406 187.5862,0.4544 192.3572,5.1174 C198.4812,11.1054 197.6802,20.1564 190.5992,24.9654 C190.1142,25.2944 189.6182,25.6034 188.7212,26.1864 C192.1712,26.5604 195.2042,26.9084 198.2412,27.2144 C208.7772,28.2764 219.3142,29.3384 229.8542,30.3694 C234.6572,30.8384 239.4692,31.2294 244.2762,31.6644 C244.8042,31.7114 245.3372,31.7694 245.8462,31.9034 C246.2432,32.0084 246.8732,31.7934 246.9522,32.4634 C247.0262,33.0924 246.4732,33.1474 246.0502,33.3154 C244.6362,33.8794 243.2852,34.5654 242.0992,35.5344 C237.1342,39.5844 236.2952,46.0864 240.0632,51.2764 C244.9512,58.0144 255.8972,59.1964 262.1212,53.6584 C267.8252,48.5854 267.1852,40.0314 260.7512,35.3834 C260.4842,35.1904 260.1942,35.0284 259.9352,34.8274 C259.5002,34.4934 258.6412,34.3714 258.9672,33.5824 C259.2602,32.8744 260.0232,33.2174 260.5532,33.2624 C263.1232,33.4764 265.6872,33.7624 268.2532,34.0184 C274.5692,34.6454 280.8842,35.3104 287.2072,35.8634 C288.5182,35.9784 288.8722,36.4424 288.7582,37.6824 C288.1232,44.5324 287.5362,51.3874 286.9392,58.2414 C286.8562,59.1954 286.8032,60.1534 286.7062,61.5464 C289.0622,59.1664 291.4442,57.6994 294.4002,57.4934 C299.2742,57.1534 302.8902,59.4354 305.2972,63.4214 C308.9702,69.5064 309.0632,75.8634 305.4602,82.0074 C300.8022,89.9534 291.5832,90.4104 285.9492,83.1304 C285.6662,82.7654 285.3982,82.3884 284.9222,81.7474 C284.4402,87.2164 283.9802,92.4294 283.5212,97.6414 C283.3782,97.8824 283.3262,98.1514 283.4842,98.3804 C283.6232,98.5824 283.8002,98.5294 283.9022,98.3014 C284.5602,97.0474 285.0712,95.0384 286.6292,95.3814 C288.4132,95.7754 287.6392,97.8564 287.5672,99.1694 C287.3752,102.6574 286.9412,106.1324 286.6032,109.6114 C287.1502,112.2244 286.2342,114.7184 285.9372,117.2554 C285.6352,119.8174 285.2212,122.3784 284.6652,124.9004 C283.7402,129.1064 284.1022,133.2984 284.3612,137.5354 C284.6612,142.4194 284.5942,147.3194 284.2882,152.2244 C283.9092,158.3074 283.4242,164.3694 282.5142,170.3964 C280.0942,186.4114 275.7142,201.8394 268.8812,216.5574 C263.3592,228.4514 256.6232,239.5784 248.4482,249.8434 C237.5262,263.5594 224.3292,274.5344 208.9482,282.9144 C206.9912,283.9794 206.9712,284.0214 208.7552,285.2824 C217.2142,291.2574 225.2992,297.6694 232.4072,305.2494 C235.1012,308.1204 237.4142,311.2454 239.1912,314.7614 C239.5492,315.4724 239.8492,316.2094 240.1082,316.9614 C241.9542,322.3304 239.9192,326.8764 234.6062,328.8234 C229.4902,330.6974 224.1662,330.9194 218.7572,330.6444 C211.2522,330.2624 203.8862,329.0414 196.5522,327.5194 C183.4882,324.8104 170.7312,321.0094 158.1092,316.7224 C155.2232,315.7424 155.1912,315.7394 153.2712,318.0254 C147.2162,325.2354 139.5372,330.1864 131.0852,334.0834 C125.8282,336.5054 120.3562,338.2774 114.7532,339.6884 C112.7082,340.2034 110.6692,340.6954 108.5412,340.6384 C102.9012,341.3874 97.2732,342.1854 91.5762,342.4664 C73.6012,343.3534 56.5022,340.2554 40.8152,331.1174 C28.4162,323.8944 19.6922,313.6694 16.1312,299.4804 C14.9622,294.8204 14.7602,290.0704 14.7792,285.2974 C14.4242,279.5724 16.2542,274.3344 18.4512,269.1984 C21.0232,263.1914 25.2742,258.5284 30.3842,254.5714 C32.3382,253.0574 32.3432,252.8734 30.4272,251.4124 C26.4192,248.3544 22.5952,245.0674 18.9692,241.5834 C14.8062,237.5824 10.9932,233.2464 8.4762,227.9524 C7.5542,226.0124 6.9102,223.9684 7.1502,221.8104 C7.5372,218.3094 9.6642,216.0654 12.7622,214.6604 C16.3322,213.0414 20.1632,212.6064 24.0092,212.5024 C31.6612,212.2954 39.1982,213.4154 46.7012,214.7724 C51.7902,215.6934 56.8242,216.8634 61.8342,218.1394 C62.4692,218.3014 63.2002,218.6224 63.7192,218.0714 C64.2682,217.4894 63.7532,216.8154 63.5512,216.2134 C61.2802,209.4544 60.0762,202.5024 59.4742,195.4014 C58.3662,182.3354 59.7302,169.4744 62.4692,156.7264 C64.9382,145.2334 70.1792,134.9054 76.2262,124.9494 C83.8222,112.4434 92.8812,101.0234 102.5542,90.0974 C109.4012,82.3624 116.6012,74.9534 124.0732,67.7984 C127.2362,64.7694 130.1612,61.3354 131.6162,56.9724 C132.3492,54.7744 133.3612,52.6764 134.3042,50.5574 C134.5982,49.8964 134.8402,49.1884 135.5462,48.8154 C136.8342,45.9984 138.8052,43.8444 141.6842,42.6164 Z" id="Fill-4" fill="#101051"></path>
                <path d="M127.3453,335.1267 C137.8073,330.8627 147.1533,325.0257 154.2243,316.0167 C155.0373,314.9807 155.7343,315.3267 156.6203,315.6317 C169.6363,320.1117 182.7933,324.1057 196.2813,326.9147 C206.4753,329.0377 216.7123,330.8367 227.2033,329.9397 C230.2543,329.6787 233.2423,329.1017 235.9613,327.6077 C239.6533,325.5777 241.0513,322.2897 239.9613,318.2177 C238.6883,313.4627 235.7283,309.7127 232.5263,306.1617 C225.2473,298.0887 216.6603,291.5437 207.8293,285.2967 C207.2413,284.8807 206.6633,284.4507 206.0073,283.9717 C209.1873,282.1417 212.3253,280.4447 215.3563,278.5747 C235.1603,266.3527 250.1033,249.5307 261.6303,229.5007 C273.4193,209.0127 280.3043,186.9467 282.8533,163.4807 C284.0443,152.5157 284.3133,141.5537 283.4003,130.5457 C283.2153,128.3047 284.0123,125.9797 284.3713,123.6967 C285.1093,118.9987 285.8583,114.3027 286.6033,109.6087 C289.6263,113.6997 292.7453,117.7207 295.6543,121.8877 C305.9553,136.6437 314.1293,152.5297 320.5743,169.3187 C320.7833,169.8647 321.0753,170.3777 321.3283,170.9067 C321.7623,171.2307 321.8063,171.7007 321.7153,172.1617 C321.3303,174.1107 320.9473,176.0717 320.0873,177.8757 C319.2043,179.7267 318.3123,179.8007 317.0623,178.2147 C316.6533,177.6957 316.3013,177.1357 315.8523,176.6427 C315.3413,176.0817 314.7233,175.7367 314.0063,175.5437 C312.9543,175.2607 312.2033,175.7637 311.6273,176.5517 C310.9743,177.4467 311.4753,178.1917 312.0923,178.8347 C313.1173,179.9027 314.4883,180.2417 315.8843,180.3387 C317.5033,180.4507 318.3913,181.3117 318.9093,182.7577 C320.5103,187.2207 320.6693,191.8127 320.1333,196.4597 C320.0423,197.2457 319.7283,197.9967 319.2773,198.6667 C318.6373,199.6187 317.7513,200.1737 316.5893,199.9957 C315.5983,199.8447 314.8993,199.2197 314.6723,198.2167 C314.4023,197.0257 314.9423,196.1687 315.9283,195.5427 C316.1493,195.4027 316.3973,195.3077 316.5543,195.0897 C315.5523,195.4757 314.6523,196.0117 314.4333,197.1867 C314.2143,198.3567 314.7473,199.2697 315.7023,199.8937 C316.7103,200.5537 317.7073,200.3687 318.6243,199.6427 C319.8033,198.7077 320.2483,197.3707 320.3623,195.9767 C320.7153,191.6817 320.8093,187.3837 319.1973,183.2737 C318.5643,181.6587 318.5703,180.2507 319.6993,178.8347 C320.4423,177.9027 320.7983,176.7307 321.1443,175.5847 C321.3323,174.9617 321.4293,174.2637 322.1753,173.9967 C324.8043,180.4327 326.6873,187.1097 328.5203,193.7987 C331.9123,206.1927 334.4363,218.7717 335.8913,231.5347 C337.9113,249.2587 336.9123,266.7007 330.0973,283.4537 C323.5153,299.6337 312.4433,312.0597 297.9463,321.5637 C283.8703,330.7907 268.3073,336.4027 252.0393,340.2367 C239.4593,343.2017 226.6933,344.9447 213.8093,345.9327 C201.8443,346.8507 189.8663,347.2427 177.8773,346.9407 C164.4413,346.6027 151.0323,345.8097 137.6573,344.3887 C128.5773,343.4247 119.5243,342.2767 110.4793,341.0517 C109.8263,340.9627 109.1873,340.7787 108.5413,340.6387 C114.9043,339.1267 121.2633,337.6057 127.3453,335.1267 Z" id="Fill-6" fill="#4E9DFF"></path>
                <path d="M135.5462,48.8154 C133.9082,52.7114 132.5122,56.7334 130.5582,60.4644 C128.9092,63.6144 126.4462,66.3034 123.8682,68.7864 C106.3512,85.6564 90.3442,103.7704 77.1712,124.3134 C66.7082,140.6304 61.0722,158.3934 59.9382,177.7064 C59.2022,190.2354 59.8372,202.5804 63.6112,214.6364 C63.8482,215.3934 64.1942,216.1184 64.3852,216.8844 C64.5302,217.4684 65.2992,218.0494 64.6252,218.6764 C64.0292,219.2304 63.2562,219.0384 62.5402,218.8714 C58.4182,217.9114 54.3162,216.8614 50.1742,216.0034 C41.9952,214.3114 33.7572,213.0254 25.3742,213.0334 C21.5862,213.0364 17.8222,213.3684 14.2192,214.6204 C8.2072,216.7104 6.2242,221.1134 8.6322,227.0024 C10.5472,231.6884 13.8112,235.4454 17.2502,239.0444 C21.6072,243.6034 26.3652,247.7294 31.4402,251.4614 C33.0502,252.6464 32.9042,253.3284 31.4702,254.4054 C27.6952,257.2414 24.1942,260.3494 21.6432,264.4114 C17.8752,270.4094 15.7282,276.9324 15.0632,283.9674 C15.0212,284.4174 14.8772,284.8554 14.7792,285.2984 C6.9522,272.1244 2.1122,257.9504 0.7402,242.6654 C-1.9778,212.3814 7.1432,185.8504 26.3362,162.5564 C31.7752,155.9544 38.1212,150.1794 43.5652,143.5684 C53.6142,131.3674 61.5652,117.8914 68.4502,103.7234 C72.7892,94.7944 76.9242,85.7554 82.4202,77.4304 C90.6072,65.0274 102.1662,57.3734 116.1882,53.0804 C122.5302,51.1384 128.9992,49.8074 135.5462,48.8154" id="Fill-8" fill="#4E9DFF"></path>
                <path d="M93.0086,47.1899 C94.4026,47.2519 95.3066,46.5799 96.1896,45.9299 C98.9936,43.8649 101.3256,41.3499 103.1596,38.3879 C103.4686,37.8879 104.1316,37.4089 103.4046,36.6719 C102.6326,35.8889 102.3816,34.9439 103.1356,33.9989 C103.5566,33.4699 104.1296,33.0749 104.8686,33.3809 C106.0776,33.8819 105.9166,34.9149 105.8146,35.9199 C105.8016,36.0409 105.8726,36.1699 105.9576,36.5009 C109.8876,34.5829 113.4806,32.3289 116.2326,28.9009 C116.3986,28.6949 116.5346,28.4669 116.6906,28.2529 C116.9646,27.8739 117.2676,27.3959 117.7956,27.7139 C118.3866,28.0699 117.9586,28.5089 117.7256,28.8909 C117.6226,29.0599 117.5046,29.2219 117.3766,29.3729 C114.1586,33.1599 110.4816,36.3029 105.5416,37.5849 C104.8106,37.7739 104.6476,38.2999 104.3516,38.7739 C102.5126,41.7269 100.2556,44.3019 97.5086,46.4419 C96.5126,47.2179 95.4806,48.2109 94.2506,48.2319 C92.2616,48.2669 91.4136,49.4859 90.4486,50.8689 C88.3616,53.8599 86.1906,56.8099 82.9506,58.6959 C81.1006,59.7729 79.1656,60.8589 77.0326,59.4619 C75.5606,58.4989 75.0766,55.4259 75.8256,52.9879 C76.3056,51.4209 77.0966,50.0599 78.5136,49.1859 C79.6626,48.4769 80.9576,48.9529 81.2226,50.0859 C81.3386,50.5809 81.2766,51.0849 80.8316,51.3119 C80.2516,51.6069 80.0436,51.2259 79.9716,50.6589 C79.8436,49.6499 79.2626,50.1539 78.8626,50.4089 C76.8836,51.6699 75.9986,56.0109 77.2916,57.9979 C77.8856,58.9099 78.7096,59.0529 79.7166,58.8019 C82.2016,58.1819 84.0846,56.6299 85.7716,54.8349 C86.9016,53.6319 87.8696,52.2769 88.9076,50.9879 C90.0346,49.5879 91.1826,48.4519 89.4706,46.4069 C88.0626,44.7249 89.0136,41.2469 90.6456,39.8839 C91.5296,39.1459 92.5466,38.8939 93.6096,39.3079 C94.7636,39.7579 94.7156,40.8109 94.6786,41.8359 C94.6116,43.7089 93.7406,45.3449 93.0086,47.1899" id="Fill-10" fill="#101051"></path>
                <path d="M317.3704,124.5928 C317.3704,124.2618 317.3524,123.9298 317.3734,123.6008 C317.4534,122.3468 318.0354,120.7948 317.5014,119.9228 C316.9094,118.9578 315.2044,119.7388 313.9934,119.5228 C311.5774,119.0928 310.0334,117.6938 309.6554,115.2818 C309.3324,113.2258 309.5304,111.1878 310.3084,109.2428 C310.5814,108.5588 311.0714,107.9988 311.7474,107.6558 C312.0454,107.5048 312.3924,107.4368 312.6524,107.7398 C312.9394,108.0748 312.7294,108.3958 312.4864,108.6008 C310.3344,110.4168 310.6394,112.8728 310.9374,115.1968 C311.2714,117.8028 315.5204,119.5868 317.7934,118.2458 C318.2694,117.9648 318.2164,117.4498 318.4104,117.0528 C318.9724,115.8968 319.6634,114.8768 320.8154,114.2378 C321.9604,113.6038 323.0184,113.7028 323.7804,114.8008 C324.5744,115.9448 324.4304,117.0588 323.2824,117.9268 C322.3694,118.6178 321.3064,118.9898 320.1804,119.1398 C319.4704,119.2348 318.8844,119.3878 318.8144,120.2528 C318.5204,123.8748 318.0534,127.4998 319.3294,131.0498 C320.0144,132.9548 321.2714,133.9638 323.3644,133.8588 C324.6664,133.7938 325.8264,133.8678 325.9004,131.9458 C325.9444,130.7998 326.9554,129.9868 328.2394,129.8918 C328.9644,129.8388 329.5564,130.1208 329.7554,130.8808 C330.0784,132.1148 329.7324,133.3578 328.6084,133.7588 C326.3244,134.5728 326.8304,136.0828 327.2314,137.7048 C327.5424,138.9618 328.0804,140.0648 329.1084,140.8838 C329.5014,141.1968 330.2374,141.4818 329.7724,142.0548 C329.2604,142.6868 328.6824,142.0728 328.2504,141.7098 C326.5074,140.2418 325.9404,138.2218 325.7664,136.0698 C325.7034,135.2758 325.5804,134.9608 324.6354,134.9698 C319.7654,135.0178 317.9604,133.3468 317.4404,128.3618 C317.3114,127.1178 317.4224,125.8498 317.4224,124.5928 L317.3704,124.5928 Z" id="Fill-12" fill="#384872"></path>
                <path d="M322.1751,173.9971 C321.2801,176.1631 321.1531,178.6811 319.1621,180.3461 C318.6431,180.7811 319.1211,181.3281 319.3001,181.8001 C320.9731,186.2191 321.4711,190.7821 320.9751,195.4641 C320.8051,197.0611 320.4761,198.6221 319.2661,199.8031 C318.1711,200.8711 316.8651,201.2891 315.4731,200.4851 C314.1451,199.7201 313.5071,198.4591 313.8891,196.9431 C314.2821,195.3821 315.4361,194.5261 317.0311,194.3261 C317.4781,194.2691 318.0631,194.2061 318.1451,194.8351 C318.2341,195.5151 317.6361,195.4241 317.1961,195.5271 C316.7541,195.6301 316.2751,195.7591 315.9241,196.0241 C314.8601,196.8341 314.6251,197.8741 315.4921,198.9481 C316.3281,199.9851 317.3561,199.8221 318.2901,199.0711 C319.2891,198.2691 319.5711,197.0681 319.7191,195.8861 C320.2911,191.2821 319.8731,186.7821 318.2461,182.4051 C317.8841,181.4281 317.4481,180.9651 316.2961,180.9601 C314.7781,180.9541 313.2631,180.5641 312.0221,179.5811 C310.9641,178.7441 310.2221,177.6891 311.0271,176.3271 C311.7881,175.0381 313.0051,174.6541 314.4531,175.0911 C316.0511,175.5741 316.9401,176.8381 317.6241,178.2021 C318.3621,179.6721 318.9141,179.1821 319.4151,178.1421 C320.5151,175.8581 321.0861,173.4221 321.3281,170.9061 C321.9511,168.5091 321.7911,166.0621 321.7991,163.6251 C321.8011,163.0801 321.5711,162.2471 322.4441,162.2781 C323.1171,162.3031 322.9571,163.0721 322.9911,163.5771 C323.2281,167.0901 322.7001,170.5431 322.1751,173.9971" id="Fill-14" fill="#384872"></path>
                <path d="M50.7312,53.1436 C50.7952,53.7186 50.3542,53.7916 50.0262,53.9586 C47.0912,55.4596 44.1422,56.9336 41.2272,58.4716 C40.4072,58.9046 40.0712,58.6616 39.7802,57.8896 C39.1292,56.1636 38.4532,54.4466 37.7362,52.7476 C37.4272,52.0156 37.3562,51.6546 38.3412,51.3996 C41.2752,50.6406 44.1702,49.7356 47.0812,48.8866 C47.4542,48.7776 47.8952,48.5366 48.1632,48.9546 C49.0522,50.3416 49.8902,51.7616 50.7312,53.1436" id="Fill-16" fill="#101051"></path>
                <path d="M326.3606,97.3208 C324.0596,99.1708 323.8326,96.4728 322.7646,95.8018 C321.9006,95.2578 321.3816,94.1908 320.5566,93.5518 C319.0246,92.3638 319.0726,91.4118 320.3726,89.9658 C322.5276,87.5678 322.4196,87.4698 324.4256,89.9808 C324.9206,90.5988 325.4076,91.2238 325.9106,91.8358 C326.1176,92.0888 326.4466,92.5608 326.5696,92.5168 C329.2156,91.5598 328.6736,94.3078 329.7016,95.2058 C329.9796,95.4488 330.0856,95.8878 330.2746,96.2348 C331.1986,97.9258 330.5596,99.4938 328.7476,100.0258 C327.8766,100.2808 327.8526,99.4488 327.5246,99.0648 C327.0756,98.5398 326.7476,97.9128 326.3606,97.3208" id="Fill-18" fill="#384872"></path>
                <path d="M301.3889,43.7583 C303.3069,40.8483 305.1509,37.9823 307.0739,35.1703 C307.7959,34.1133 308.9879,34.6973 309.8059,34.9183 C310.8089,35.1893 309.9099,36.0423 309.7519,36.5253 C308.9129,39.0833 307.9179,41.5903 307.0529,44.1403 C306.7299,45.0953 306.2879,45.3723 305.3249,45.0113 C304.0959,44.5533 302.8249,44.2093 301.3889,43.7583" id="Fill-20" fill="#384872"></path>
                <path d="M260.6389,19.9248 C261.5579,17.8488 262.3779,15.9958 263.1999,14.1438 C263.2789,13.9648 263.3449,13.6498 263.4519,13.6328 C264.9079,13.4118 265.9789,14.4418 267.2479,14.8428 C267.8709,15.0408 268.5769,15.1918 268.4099,16.1228 C268.3869,16.2518 268.3819,16.3848 268.3739,16.5168 C268.1179,20.9928 268.1179,20.9918 263.6649,20.3458 C262.7539,20.2148 261.8419,20.0918 260.6389,19.9248" id="Fill-22" fill="#384872"></path>
                <path d="M49.3094,98.3833 C49.4744,93.9573 49.4464,94.0373 53.6244,95.4513 C55.0604,95.9373 55.3484,96.5713 54.8234,97.8553 C54.6014,98.3993 54.3824,98.9713 54.3184,99.5483 C54.0814,101.6703 53.0744,102.0213 51.0144,101.6443 C48.5784,101.1983 49.3834,99.6303 49.3094,98.3833" id="Fill-24" fill="#212121"></path>
                <path d="M283.9026,98.3018 C283.8956,98.6518 283.6156,99.1018 283.4236,98.9498 C282.9506,98.5768 283.1686,98.0608 283.5206,97.6418 C283.6476,97.8618 283.7756,98.0818 283.9026,98.3018" id="Fill-26" fill="#4B4B4B"></path>
                <path d="M191.469,215.0684 C190.008,209.0174 189.078,203.5494 189.045,197.9524 C189.038,196.6984 189.086,195.8864 190.765,196.6584 C192.555,197.4814 194.622,198.3514 196.318,196.6064 C198.1,194.7714 197.508,192.5354 196.675,190.4534 C195.773,188.2014 194.268,186.3284 192.474,184.7324 C191.588,183.9454 191.318,183.1994 191.445,181.9984 C192.232,174.6034 190.603,168.0334 184.557,163.1224 C183.904,162.5914 183.728,162.0294 183.761,161.2464 C183.831,159.5884 183.819,157.9274 183.274,156.3284 C182.761,154.8254 181.804,154.2134 180.204,154.7434 C178.169,155.4174 176.362,156.5084 174.593,157.6794 C173.993,158.0774 173.456,158.5364 172.622,158.4404 C165.883,157.6694 159.79,159.6644 154.057,162.9744 C152.951,163.6124 152.168,163.6414 151,163.1074 C147.948,161.7104 144.723,161.0464 141.336,161.6654 C140.473,161.8224 139.671,162.1204 138.959,162.6164 C136.828,164.1014 136.672,166.2284 138.626,167.9354 C139.414,168.6244 140.357,169.1374 141.442,169.8754 C136.947,172.5574 133.199,176.0344 129.373,179.8294 C128.677,178.5034 128.799,177.2244 128.638,176.0624 C127.313,166.4534 124.186,157.4404 119.895,148.7804 C117.43,143.8064 114.867,138.8594 113.734,133.3444 C111.718,123.5284 113.583,114.2354 117.745,105.3414 C122.962,94.1914 130.351,84.7094 140.099,77.1114 C140.804,77.4974 140.457,78.0874 140.431,78.5374 C140.04,85.3504 139.658,92.1654 139.172,98.9724 C139.055,100.5984 139.523,101.1064 141.176,101.2424 C156.162,102.4754 171.139,103.8064 186.12,105.1094 C193.973,105.7914 201.822,106.5324 209.68,107.1414 C222.544,108.1374 235.415,109.0414 248.282,109.9964 C253.298,110.3684 258.307,110.8544 263.328,111.1204 C265.01,111.2094 264.603,112.3524 264.729,113.1834 C266.354,123.9284 265.642,134.5514 263.169,145.1164 C261.766,151.1084 260.261,157.0704 258.784,163.0434 C255.733,175.3884 248.113,184.1014 237.474,190.5204 C229.647,195.2434 221.128,198.3394 212.434,200.9314 C204.64,203.2554 198.237,207.6064 192.712,213.4234 C192.353,213.8024 192.075,214.2584 191.469,215.0684" id="Fill-28" fill="#4E9DFF"></path>
                <path d="M236.5315,192.3174 C237.9535,197.0384 237.9535,197.0754 242.8455,197.0684 C244.6965,197.0664 245.6155,197.7664 245.8515,199.6764 C246.2175,202.6254 246.5915,205.5944 247.6785,208.3944 C248.0115,209.2514 248.4205,210.0914 248.9005,210.8744 C249.7735,212.2964 251.0225,213.0464 252.7495,212.6464 C254.5065,212.2394 254.9005,210.8424 255.0215,209.3264 C255.3595,205.1034 254.2635,201.0434 253.5275,196.9494 C252.5885,191.7244 251.8325,186.4954 252.1345,181.1604 C252.2085,179.8584 252.5315,178.7494 253.3355,177.6834 C257.7945,171.7714 259.5025,164.7404 261.3045,157.7574 C261.8665,155.5824 262.3435,153.3834 262.9185,151.2124 C264.3145,145.9444 268.7775,142.3504 273.8795,142.5784 C277.2835,142.7314 279.9135,144.7174 282.4405,146.7874 C283.0675,147.3014 282.7945,148.0234 282.7755,148.6504 C282.1675,169.9544 278.0525,190.5344 269.9185,210.2634 C266.0525,219.6384 261.2465,228.5244 255.7455,237.0414 C255.1275,237.9994 254.6595,238.4584 253.2825,238.1964 C249.9845,237.5704 246.8155,238.5004 243.9095,240.0464 C232.4445,246.1514 224.6245,255.3044 220.9925,267.8704 C220.6655,269.0054 220.3245,270.2614 220.4945,271.3854 C220.8375,273.6414 219.6055,274.6354 217.9685,275.7114 C202.3695,285.9514 185.2275,292.2234 166.9785,295.6774 C166.6535,295.7394 166.3215,295.7674 165.9905,295.791215 C165.8695,295.7984 165.7435,295.7464 165.4345,295.6834 C166.3675,293.1514 167.2825,290.6454 168.2125,288.1464 C170.2155,282.7644 171.8985,277.2554 174.8235,272.2514 C176.3115,269.7054 178.2435,267.5504 180.2885,265.4644 C185.5125,260.1344 190.1685,254.4074 192.8015,247.2904 C195.5195,239.9424 195.2885,232.5034 193.5395,225.0034 C192.9545,222.4924 192.5305,219.9414 191.8935,217.4444 C191.6395,216.4464 191.9285,215.8304 192.5545,215.1504 C198.0705,209.1564 204.4055,204.4754 212.3415,202.0854 C220.6845,199.5714 228.8975,196.6714 236.5315,192.3174" id="Fill-30" fill="#FEFEFE"></path>
                <path d="M122.6521,89.8882 C122.5461,92.6572 121.6671,95.8462 119.9121,98.8382 C114.9461,107.3082 111.6331,116.3342 111.9241,126.2812 C112.0021,128.9342 111.1731,130.0502 108.9451,131.1042 C103.6221,133.6212 98.5101,136.5542 93.6941,139.9662 C92.3961,140.8862 91.1211,141.8512 90.1091,143.0942 C88.7801,144.7252 88.4901,146.5712 89.3191,148.4922 C90.1681,150.4592 91.8041,151.3102 93.9051,151.3872 C95.9641,151.4632 97.7801,150.6422 99.6161,149.8942 C101.8181,148.9962 103.9821,147.9992 106.2151,147.1892 C107.8421,146.5982 109.4521,146.6492 110.8101,148.0222 C112.8021,150.0362 115.2621,150.5812 117.9441,149.9342 C119.0021,149.6792 119.3111,150.1222 119.7011,150.9182 C124.1441,159.9772 126.8741,169.5282 128.0041,179.5442 C128.0911,180.3232 128.1551,181.0272 127.4641,181.7202 C119.0791,190.1332 110.5251,198.3202 100.1511,204.3452 C91.1701,209.5602 81.5311,213.1452 71.6521,216.1772 C70.7051,216.4682 69.7531,216.7482 68.8221,217.0882 C65.9451,218.1382 65.9381,218.1522 64.9361,215.2172 C63.6741,211.5162 62.7931,207.7182 62.1111,203.8732 C62.0071,203.2892 61.7111,202.6552 62.6171,202.2052 C67.0391,200.0132 68.9251,195.9682 70.0891,191.5062 C71.5471,185.9122 71.4261,180.3532 69.1891,174.9542 C67.9601,171.9872 66.1591,169.4532 62.8771,168.5432 C61.6331,168.1982 62.1871,167.5272 62.2621,166.8942 C64.0601,151.8842 69.7731,138.3422 77.6891,125.6112 C87.8151,109.3272 100.0731,94.7472 113.2701,80.9122 C114.6311,79.4862 118.4341,80.1372 120.1861,82.0732 C122.0181,84.0972 122.6501,86.5572 122.6521,89.8882" id="Fill-32" fill="#FEFEFE"></path>
                <path d="M205.2669,68.4824 C215.5369,68.4844 225.5599,69.9304 235.3019,73.3024 C237.0909,73.9214 237.1179,74.6844 236.6169,76.1594 C234.8629,81.3284 230.7499,84.8554 226.2329,84.9514 C221.3249,85.0564 216.9939,81.4814 215.2269,75.9314 C214.9909,75.1884 215.2269,73.7834 214.1959,73.9094 C213.2549,74.0244 213.6609,75.3684 213.5959,76.1714 C212.8539,85.4804 212.1169,94.7894 211.4559,104.1034 C211.3469,105.6454 210.9929,106.2134 209.2639,106.0504 C197.9249,104.9844 186.5739,104.0444 175.2269,103.0604 C169.0259,102.5224 162.8289,101.9304 156.6209,101.4754 C155.1029,101.3644 154.4569,100.6894 154.0589,99.3384 C152.5339,94.1574 153.6429,89.5164 156.8889,85.3384 C161.0869,79.9344 166.8289,76.6944 173.0299,74.1974 C183.3669,70.0364 194.1839,68.4834 205.2669,68.4824" id="Fill-34" fill="#FEFEFE"></path>
                <path d="M285.9114,55.0249 C285.6894,57.6579 285.4604,60.2899 285.2544,62.9239 C285.2194,63.3619 285.0414,63.8939 285.5494,64.1849 C286.1004,64.5009 286.4224,64.0539 286.6824,63.6899 C289.2224,60.1399 292.5294,58.0519 297.0004,58.9019 C301.9684,59.8459 304.6334,63.3819 306.0134,67.9549 C307.3464,72.3679 307.0264,76.7249 304.7944,80.8139 C302.7684,84.5239 299.8234,87.0039 295.3674,87.0229 C290.9824,87.0429 288.1684,84.5199 285.9514,81.0389 C285.4694,80.2819 285.5354,78.6549 284.3494,78.9659 C283.4584,79.1999 283.7144,80.6949 283.6334,81.6539 C283.0684,88.3129 282.7854,95.0069 281.8764,101.6169 C281.4634,104.6179 279.8424,107.4559 278.7364,110.3549 C278.4834,111.0169 277.8214,110.7819 277.3364,110.7559 C272.1804,110.4809 267.0144,110.3029 261.8734,109.8439 C257.7914,109.4789 253.6724,109.5209 249.6244,108.7729 C249.6964,107.4829 250.7964,106.9149 251.5384,106.1189 C254.7814,102.6429 256.7824,98.7319 256.4524,93.7959 C256.2044,90.0849 254.4264,87.1569 252.2064,84.3809 C251.7544,83.8159 251.1654,83.3569 250.8524,82.6799 C250.6094,81.7759 250.8704,81.0589 251.4834,80.3319 C256.3634,74.5459 262.0214,69.6059 268.0914,65.1359 C273.3124,61.2919 278.9324,58.0879 284.7884,55.3019 C285.1454,55.1319 285.4884,54.9209 285.9114,55.0249" id="Fill-36" fill="#347FDC"></path>
                <path d="M239.9134,32.5083 C241.0864,32.6413 242.2594,32.7743 243.7264,32.9403 C242.2794,33.8483 241.0384,34.6873 240.0054,35.7643 C235.4604,40.5033 235.2914,47.7123 239.5914,52.6873 C244.5984,58.4823 253.2304,60.1283 260.0074,56.5813 C268.6514,52.0563 269.7374,42.3083 262.2214,34.9383 C264.5124,34.5063 266.6094,35.1663 268.6944,35.3083 C273.9654,35.6673 279.2194,36.2773 284.4774,36.7983 C285.2014,36.8693 285.9154,37.0683 286.6384,37.0973 C287.4694,37.1313 287.5764,37.5193 287.5044,38.2483 C286.9534,43.7723 286.4384,49.2993 285.9134,54.8253 C277.6694,58.2803 270.2124,63.0213 263.3254,68.6853 C258.9234,72.3053 254.7964,76.2113 251.1234,80.5813 C250.8284,80.9333 250.5684,81.3403 250.0264,81.3343 L249.8934,81.3523 C249.4774,81.6253 249.1174,81.4183 248.8104,81.1733 C245.8944,78.8493 242.6424,77.0843 239.3184,75.4403 C238.8944,75.2313 238.5344,74.9513 238.2694,74.5563 C239.0614,70.1033 238.5074,65.8413 236.2464,61.9013 C231.6504,53.8943 222.6424,53.1873 216.7304,60.3213 C216.5764,60.5083 216.4214,60.6953 215.9124,61.3103 C216.3714,55.7053 216.7884,50.6193 217.2054,45.5333 C217.6234,44.9933 218.1904,44.6763 218.8154,44.4323 C225.7344,41.7193 232.1844,38.1773 238.0224,33.5553 C238.5954,33.1023 239.2014,32.7103 239.9134,32.5083" id="Fill-38" fill="#347FDC"></path>
                <path d="M216.7337,34.936 C216.4747,38.443 216.2047,41.859 215.9807,45.278 C215.9117,46.339 215.0527,46.265 214.4167,46.469 C205.6377,49.291 196.6237,50.463 187.4177,50.387 C172.7977,50.265 158.8347,47.054 145.3167,41.627 C144.1667,41.165 143.8937,40.574 143.9917,39.447 C144.2087,36.939 144.3717,34.423 144.4477,31.908 C144.4907,30.502 144.8387,30.246 146.1797,30.862 C154.5117,34.69 163.2117,37.342 172.2627,38.858 C187.1017,41.345 201.6687,40.734 215.8257,35.186 C216.0677,35.091 216.3297,35.046 216.7337,34.936" id="Fill-40" fill="#FEFEFE"></path>
                <path d="M238.2698,74.5562 C242.5038,76.2062 246.3108,78.5882 249.8938,81.3522 C243.5468,88.9042 238.4018,97.1912 234.7718,106.3722 C234.2528,107.6812 233.7168,107.9652 232.3608,107.8382 C226.3618,107.2802 220.3538,106.7832 214.3378,106.4682 C212.6458,106.3792 212.2768,105.9712 212.4208,104.3272 C213.1828,95.6182 213.8278,86.8982 214.5138,78.1652 C215.0848,78.0052 215.0848,78.5382 215.2538,78.8442 C217.7398,83.3342 221.2668,86.3992 226.6558,86.0102 C232.1618,85.6122 235.3608,82.0102 237.3698,77.1742 C237.7228,76.3242 237.9718,75.4302 238.2698,74.5562" id="Fill-42" fill="#FEFEFE"></path>
                <path d="M136.0633,78.7681 C135.5913,77.0311 135.3203,75.3251 134.5923,73.7491 C133.2223,70.7821 131.2093,68.5421 127.8853,67.7971 C127.0853,67.6181 126.5323,67.3751 127.3343,66.5811 C132.1143,61.8461 133.8153,55.4601 136.4363,49.5761 C137.7083,46.7211 139.5413,44.5651 142.7923,43.3821 C142.6333,45.9331 142.6993,48.2921 141.7693,50.6111 C140.7123,53.2421 141.0983,55.9691 141.8973,58.5931 C142.3813,60.1801 143.6103,60.2531 144.9343,59.5481 C146.4233,58.7551 147.5193,57.4971 148.6633,56.3041 C150.2663,54.6311 151.8423,52.9321 153.4593,51.2721 C153.7593,50.9641 154.1253,50.4411 154.5933,50.6561 C155.2373,50.9511 154.8803,51.5811 154.7933,52.0741 C154.4443,54.0481 153.5723,55.8371 152.7843,57.6551 C149.1093,66.1301 144.0303,73.5021 136.0633,78.7681" id="Fill-44" fill="#4E9DFF"></path>
                <path d="M250.9378,82.5435 C258.4258,88.8545 259.0898,98.4885 252.5228,105.7995 C251.5988,106.8285 250.5928,107.7835 249.6258,108.7725 C244.8758,109.0705 240.2078,108.1785 235.2338,108.0075 C239.0118,98.5045 243.9398,90.0265 250.4638,82.4915 C250.6458,82.2935 250.8038,82.3105 250.9378,82.5435" id="Fill-46" fill="#FEFEFE"></path>
                <path d="M286.6233,96.7373 C286.2743,107.4843 284.1083,118.0003 282.4323,128.8073 C277.5743,125.2993 272.4353,124.9363 266.8983,126.1593 C266.6043,122.5773 266.3733,119.0833 266.0023,115.6033 C265.8773,114.4343 266.5083,114.2783 267.3263,114.1273 C270.5773,113.5273 273.8183,112.8693 277.0833,112.3503 C278.6533,112.1003 279.5843,111.5403 280.1383,109.8673 C281.4043,106.0433 282.9563,102.3113 284.8213,98.7263 C285.2063,97.9883 285.6883,97.3013 286.1263,96.5913 C286.2913,96.6393 286.4573,96.6883 286.6233,96.7373" id="Fill-48" fill="#4E9DFF"></path>
                <path d="M189.4915,186.4346 C188.0355,176.9746 182.1115,171.6456 174.1625,168.0306 C167.6065,165.0486 160.7865,163.9886 153.6515,165.2096 C153.4195,165.2496 153.1755,165.2146 152.8355,165.2146 C161.6415,158.7106 174.1065,156.8576 183.2575,163.4846 C189.8165,168.2356 191.1175,175.0436 190.3555,182.5636 C190.2625,183.4826 190.0675,184.3926 189.8975,185.3026 C189.8505,185.5556 189.7245,185.7936 189.4915,186.4346" id="Fill-50" fill="#4E9DFF"></path>
                <path d="M39.8108,312.8203 C39.3748,312.8033 38.7448,312.9903 38.771898,312.2883 C38.7968,311.6933 39.4018,311.7193 39.8588,311.6803 C42.7088,311.4343 45.4868,310.8283 48.1858,309.9033 C58.2768,306.4423 63.7168,298.8863 66.3968,288.9873 C68.5468,281.0453 68.9228,272.9223 68.5858,264.7473 C68.3258,258.4223 68.8048,252.1733 70.5588,246.0673 C73.3648,236.2983 79.8898,229.7063 88.5608,224.8633 C95.9498,220.7363 104.0288,218.3673 111.8608,215.3603 C120.5068,212.0413 128.1078,207.3273 133.1738,199.2563 C134.6208,196.9503 135.7168,194.4723 136.8678,192.0153 C140.9478,183.3083 146.7478,176.2153 155.7338,172.1663 C157.4278,171.4033 159.2008,170.8623 161.0208,170.5043 C161.4158,170.4263 162.0218,170.1453 162.2048,170.7793 C162.3888,171.4213 161.8268,171.4873 161.3608,171.5913 C150.2058,174.0923 142.7508,181.3703 138.5648,191.3943 C132.7398,205.3433 122.3108,213.2873 108.4818,217.7993 C101.0618,220.2193 93.7768,222.9783 87.0188,227.0133 C76.3788,233.3653 71.1148,242.8613 69.9428,254.9883 C69.2908,261.7443 70.0228,268.5023 69.5978,275.2503 C69.1758,281.9563 68.1998,288.5493 65.5438,294.7803 C60.0568,307.6623 49.9288,311.6613 39.8108,312.8203" id="Fill-52" fill="#4E9DFF"></path>
                <path d="M177.0232,180.0801 C176.8182,180.7411 176.2342,180.9961 175.7962,181.3731 C169.4742,186.8221 165.1942,193.4911 163.6312,201.7671 C163.2142,203.9761 163.0842,206.2461 162.5632,208.4261 C161.1432,214.3691 157.4782,218.6621 152.2852,221.7031 C150.1182,222.9721 147.9262,224.2331 145.6372,225.2551 C135.3362,229.8531 128.5712,237.9341 123.2722,247.5481 C118.3012,256.5661 117.2522,266.1221 118.6432,276.2051 C119.4942,282.3731 119.5752,288.6301 118.3902,294.8111 C116.5922,304.1881 111.2512,311.1641 103.5652,316.5341 C98.6542,319.9651 93.3242,322.5901 87.7662,324.7701 C87.2372,324.9781 86.4492,325.7461 86.1062,324.7661 C85.8562,324.0521 86.8332,324.0171 87.3232,323.8161 C93.4712,321.3101 99.3772,318.3721 104.6952,314.3411 C113.4062,307.7391 117.7542,298.9361 118.0972,288.0641 C118.2732,282.4841 117.8992,276.9201 117.2082,271.4091 C116.0382,262.0851 118.6482,253.7071 123.0682,245.7441 C128.3712,236.1931 135.4772,228.4651 145.7082,223.9911 C147.5802,223.1721 149.3402,222.0931 151.1342,221.1011 C157.8432,217.3891 161.4962,211.7121 162.2522,204.0711 C163.2162,194.3151 168.0252,186.6291 175.3442,180.3601 C175.7212,180.0371 176.0512,179.5051 176.6752,179.6641 C176.8212,179.7011 176.9152,179.9431 177.0232,180.0801" id="Fill-54" fill="#4E9DFF"></path>
                <path d="M239.9134,32.5083 C234.4504,37.4243 228.1154,40.9313 221.4474,43.8893 C220.0624,44.5043 218.6204,44.9883 217.205256,45.5333 C217.1974,41.7503 217.5224,37.9903 218.0034,34.2413 C220.1474,32.5873 222.3924,31.1623 225.2254,31.0753 C230.1204,31.5533 235.0174,32.0303 239.9134,32.5083" id="Fill-56" fill="#FEFEFE"></path>
                <path d="M176.0974,67.853 C172.4994,67.852 169.7034,65.0509957 169.705399,61.447 C169.7074,57.837 172.4974,55.047 176.1004,55.0509957 C179.6674,55.055 182.5384,57.91 182.536401,61.451 C182.5344,64.982 179.6464,67.853 176.0974,67.853" id="Fill-58" fill="#4E9DFF"></path>
                <path d="M277.2366,142.1948 C275.2866,141.5748 273.5996,140.9808 271.7956,140.9258 C271.0806,140.9038 270.6846,140.6828 270.8046,139.8538 C271.3996,135.7298 271.9716,131.6018 272.5376,127.4738 C272.6316,126.7878 273.0156,126.6338 273.6346,126.6608 C274.9016,126.7148 276.1086,127.0278 277.3266,127.3448 C278.1946,127.5708 278.0366,128.1688 278.0056,128.7348 C277.7596,133.1598 277.5016,137.5838 277.2366,142.1948" id="Fill-60" fill="#FDFDFD"></path>
                <path d="M124.1419,84.0122 C123.7449,83.5002 123.3859,83.0412 123.0309,82.5792 C122.3519,81.6962 120.6209,81.3392 120.7369,80.3902 C120.8579,79.4002 122.1069,78.5412 122.8789,77.6392 C124.8959,75.2832 126.9599,72.9652 128.9229,70.5632 C129.6029,69.7312 130.1269,69.7222 130.8229,70.4122 C131.1499,70.7372 131.5079,71.0352 131.8179,71.3752 C133.5879,73.3142 133.5829,73.4782 131.8819,75.3842 C129.6409,77.8952 127.4059,80.4132 125.1649,82.9262 C124.9039,83.2192 124.6269,83.4982 124.1419,84.0122" id="Fill-62" fill="#FDFDFD"></path>
                <path d="M271.594,126.7998 C270.982,130.9588 270.306,135.0088 269.83,139.0838 C269.664,140.5058 269.175,141.0418 267.773,141.0148 C266.938,140.9988 266.096,141.2748 265.029,141.4578 C265.728,136.8508 266.564,132.3958 266.902,127.8788 C266.956,127.1538 267.564,127.1628 268.076,127.0658 C269.174,126.8588 270.26,126.5168 271.594,126.7998" id="Fill-64" fill="#FDFDFD"></path>
                <path d="M279.1302,128.1831 C281.4162,129.0421 282.3892,130.2501 282.4932,132.5531 C282.6862,136.7791 282.8372,140.9981 282.8122,145.4391 C281.4002,144.5731 280.1522,143.7651 278.8592,143.0381 C278.3172,142.7331 278.3722,142.3011 278.3962,141.8531 C278.6302,137.3611 278.8772,132.8691 279.1302,128.1831" id="Fill-66" fill="#FDFDFD"></path>
                <path d="M151.3841,164.4854 C148.8811,166.9544 145.7501,167.4404 143.0951,168.8364 C141.9621,169.4324 138.7161,167.1324 138.4301,165.8144 C138.1551,164.5494 139.3011,163.2994 141.2721,162.8514 C144.7731,162.0554 148.0091,162.9184 151.3841,164.4854" id="Fill-68" fill="#4E9DFF"></path>
                <path d="M191.1936,185.001 C193.6996,187.368 195.7816,189.76 196.3046,193.123 C196.6726,195.482 195.4356,196.658 193.1226,196.314 C189.6736,195.804 189.0436,194.971 189.4986,191.53 C189.5496,191.138 189.5726,190.736 189.6766,190.356 C190.1416,188.663 190.6316,186.977 191.1936,185.001" id="Fill-70" fill="#4E9DFF"></path>
                <path d="M127.0076,88.543 C126.7686,88.264 126.6566,88.177 126.6016,88.064 C125.0066,84.787 125.0016,84.781 127.4606,81.993 C129.5126,79.666 131.5806,77.354 133.7836,74.876 C134.4556,76.292 134.6836,77.607 134.8716,78.944 C134.9636,79.593 134.8096,80.069 134.3246,80.524 C131.7146,82.972 129.3716,85.669 127.0076,88.543" id="Fill-72" fill="#FDFDFD"></path>
                <path d="M155.569342,181.896 C155.5821,182.446 155.0691,182.6 154.7331,182.878 C150.0241,186.771 147.0351,191.781 145.5521,197.633 C143.3611,206.284 138.6211,212.843 130.4801,216.731 C129.7671,217.072 128.6001,218.169 128.1731,217.216 C127.6921,216.141 129.3111,216.146 130.0241,215.796 C137.1471,212.29 141.8731,206.767 143.9411,199.108 C145.6861,192.645 148.3981,186.802 153.6221,182.383 C154.0241,182.043 154.4541,181.728 154.9041,181.455 C155.3271,181.199 155.4721,181.521 155.569342,181.896" id="Fill-74" fill="#4E9DFF"></path>
                <path d="M250.9378,82.5435 C250.7808,82.5265 250.6228,82.5095 250.4638,82.4915 C250.7068,81.9595 250.4598,81.6115 250.0268,81.3345 C254.6498,75.3945 260.1898,70.3985 266.1308,65.8355 C271.6018,61.6345 277.4978,58.1105 283.7258,55.1485 C284.4028,54.8265 285.0768,54.1915 285.9138,54.8245 C285.9418,54.8925 285.9408,54.9595 285.9118,55.0255 C285.3798,55.6545 284.6258,55.9315 283.9158,56.2725 C271.5588,62.2215 260.8498,70.3325 251.8608,80.6975 C251.4018,81.2255 250.7158,81.6645 250.9378,82.5435" id="Fill-76" fill="#FEFDFA"></path>
                <path d="M63.7185,219.8887 C63.7665,220.5257 63.2135,220.6187 62.8285,220.7917 C53.5955,224.9407 47.3135,232.0287 42.6765,240.8197 C40.7345,244.5027 38.5955,248.0857 35.9125,251.3017 C35.6415,251.6267 35.3865,252.2347 34.8335,251.8747 C34.2515,251.4977 34.6835,251.0757 34.9775,250.7257 C38.8755,246.0777 41.4095,240.5737 44.5655,235.4597 C48.9035,228.4327 54.9025,223.3267 62.3175,219.8127 C63.3675,219.3147 63.6725,219.3487 63.7185,219.8887" id="Fill-78" fill="#4E9DFF"></path>
                <path d="M128.6697,69.2383 C125.6597,72.7323 122.7347,76.1073 119.8397,79.5073 C119.3727,80.0553 118.9057,79.8293 118.4107,79.6953 C117.4587,79.4373 116.5097,79.1643 115.8247,78.9723 C118.9597,75.6693 122.1397,72.2053 125.4707,68.8933 C126.2677,68.0993 127.4457,68.8273 128.6697,69.2383" id="Fill-80" fill="#FDFDFD"></path>
                <path d="M182.5642,161.6587 C180.1462,160.3157 177.8532,159.4247 175.2482,158.7317 C176.9262,157.3097 178.6662,156.4497 180.5072,155.7897 C181.5402,155.4207 182.1442,155.9457 182.3592,156.9477 C182.6762,158.4267 182.7882,159.9197 182.5642,161.6587" id="Fill-82" fill="#4E9DFF"></path>
                <path d="M164.0711,298.6914 C163.9531,298.9794 163.8371,299.2884 163.7021,299.5894 C161.7571,303.9404 159.5661,308.1634 157.0031,312.1834 C156.7251,312.6194 156.5001,313.5674 155.7781,313.1424 C154.9971,312.6844 155.7861,312.0974 156.0591,311.6594 C158.5841,307.6134 160.8041,303.4104 162.7381,299.0514 C162.9031,298.6804 162.9281,298.0754 163.5911,298.1444 C163.8861,298.1754 164.0481,298.3684 164.0711,298.6914" id="Fill-84" fill="#4E9DFF"></path>
                <path d="M225.2249,31.0757 C222.5889,31.6127 220.5089,33.4137 218.0019,34.2427 C218.3099,30.6067 218.3109,30.5997 221.7489,30.8007 C222.9099,30.8677 224.0669,30.9827 225.2249,31.0757" id="Fill-86" fill="#4E9DFF"></path>
                <path d="M289.9153,161.0337 C288.2213,182.7487 283.4993,203.6287 272.5913,222.7687 C272.2253,223.4087 272.0503,224.8737 271.0403,224.3247 C270.2783,223.9087 271.3103,222.9457 271.6693,222.3197 C279.5403,208.6057 284.0603,193.7467 286.7643,178.2667 C287.7683,172.5227 288.4233,166.7387 288.7733,160.9177 C288.8123,160.2717 288.4303,159.0977 289.4003,159.1527 C290.3393,159.2057 289.7453,160.3607 289.9153,161.0337" id="Fill-88" fill="#384872"></path>
                <path d="M54.4778,169.6001 C54.9718,154.0391 59.3838,139.6751 67.6698,126.4991 C67.8458,126.2191 68.0378,125.9471 68.2498,125.6941 C68.4598,125.4431 68.7278,125.1601 69.0678,125.4281 C69.3778,125.6721 69.2628,126.0301 69.0998,126.3311 C68.9738,126.5631 68.8048,126.7701 68.6638,126.9951 C59.8988,140.9671 55.3608,156.1471 55.6018,172.6941 C55.6048,172.8931 55.6148,173.0921 55.6078,173.2901 C55.5928,173.7421 55.6938,174.3501 55.0778,174.3961 C54.3978,174.4481 54.4918,173.8111 54.4848,173.3761 C54.4648,172.1181 54.4778,170.8581 54.4778,169.6001" id="Fill-90" fill="#1E1D1A"></path>
                <path d="M88.0125,82.2144 C91.8355,84.8214 91.8345,84.8214 90.1095,88.7874 C89.9775,89.0894 89.9355,89.4994 89.7095,89.6764 C89.0695,90.1794 89.6825,92.1484 88.0265,91.3304 C86.8065,90.7274 84.7585,90.4934 85.8985,88.0784 C86.7655,86.2444 87.2935,84.2514 88.0125,82.2144" id="Fill-92" fill="#384872"></path>
                <path d="M90.1673,44.3638 C90.1823,42.6658 90.5103,41.3658 91.7593,40.6218 C92.6873,40.0688 93.5853,40.0278 93.5023,41.5868 C93.4243,43.0688 92.9393,44.4258 92.2863,45.7288 C92.0713,46.1568 92.0173,46.8858 91.3213,46.7788 C90.7613,46.6918 90.5053,46.1218 90.3613,45.6178 C90.2173,45.1158 90.1983,44.5788 90.1673,44.3638" id="Fill-94" fill="#FBFBFB"></path>
                <path d="M104.7508,35.2979 C104.6538,35.4439 104.5238,35.7939 104.4028,35.7909 C104.0278,35.7829 103.8848,35.4199 103.9098,35.1129 C103.9258,34.9139 104.1508,34.5949 104.3148,34.5719 C104.7958,34.5059 104.6888,34.9289 104.7508,35.2979" id="Fill-96" fill="#CFCFCF"></path>
                <path d="M319.4563,117.8711 C319.7303,116.7551 320.3913,115.9751 321.2763,115.3621 C321.8473,114.9681 322.4173,114.9691 322.8183,115.5691 C323.2193,116.1651 323.0243,116.7291 322.4313,117.0781 C321.5323,117.6051 320.6123,118.1211 319.4563,117.8711" id="Fill-98" fill="#384872"></path>
                <path d="M327.0227,133.2354 C326.8287,132.1274 327.2387,131.5254 328.0277,131.1554 C328.2937,131.0304 328.5797,131.1474 328.6177,131.4644 C328.7487,132.5594 328.0267,132.9544 327.0227,133.2354" id="Fill-100" fill="#E1E1E1"></path>
                <path d="M317.0432,179.5918 C315.3412,179.8598 314.0632,179.4138 312.8882,178.6568 C312.2752,178.2618 311.6492,177.6998 312.1132,176.8878 C312.6002,176.0358 313.4182,175.8708 314.3242,176.2908 C315.6762,176.9168 316.2482,178.1668 317.0432,179.5918" id="Fill-102" fill="#4E9DFF"></path>
                <path d="M51.261,95.7949 C51.975,96.2539 53.446,96.0129 53.664,96.9959 C53.925,98.1679 53.292,99.4419 52.716,100.5339 C52.425,101.0849 50.425,100.3139 50.411,99.6309 C50.387,98.5119 50.495,97.3899 50.54,96.2699 C50.556,95.8679 50.722,95.6699 51.261,95.7949" id="Fill-104" fill="#FAFAFA"></path>
                <path d="M250.9788,149.9756 C250.6218,150.9056 249.5928,151.0236 248.8698,151.5116 C248.0158,152.0856 247.8798,151.2296 247.6278,150.7706 C246.2618,148.2826 244.8638,145.8076 243.6038,143.2646 C243.0318,142.1086 242.4738,141.7646 241.4698,142.6896 C240.0108,144.0356 239.2488,143.6726 238.4398,141.8736 C236.7358,138.0826 234.8538,134.3636 232.8648,130.7146 C232.0788,129.2736 232.4688,128.7066 233.7168,127.9996 C236.2808,126.5466 236.2488,126.4886 237.4178,129.1526 C238.3748,131.3286 239.4098,133.4746 240.2498,135.6936 C240.7488,137.0066 241.3508,137.1296 242.3738,136.3516 C243.7618,135.2956 244.4608,135.6346 245.1548,137.2886 C246.8128,141.2436 248.7248,145.0906 250.5338,148.9826 C250.6728,149.2816 250.8038,149.5846 250.9788,149.9756" id="Fill-106" fill="#101051"></path>
                <path d="M168.0789,127.4356 C164.7799,129.5526 162.5879,128.3796 160.7839,125.5076 C159.9479,124.1776 158.8089,123.0276 157.7439,121.8536 C157.1389,121.1866 157.2549,120.8766 157.9809,120.3886 C161.4379,118.0646 161.4239,118.0406 163.8589,121.4716 C165.2679,123.4576 166.6729,125.4486 168.0789,127.4356" id="Fill-108" fill="#101051"></path>
                <path d="M226.4641,166.0884 C226.1711,165.8654 225.9081,165.6764 225.6581,165.4724 C220.8231,161.5254 220.8241,161.5244 225.4491,157.4914 C229.2931,154.1404 229.2571,154.1714 232.5841,158.0004 C233.4571,159.0054 233.5971,159.6254 232.5111,160.5524 C230.8001,162.0124 229.2191,163.6264 227.5741,165.1674 C227.2411,165.4794 226.8701,165.7534 226.4641,166.0884" id="Fill-110" fill="#1F1F1C"></path>
                <path d="M210.3968,236.2393 C210.6148,226.5043 211.7458,216.8433 212.8488,207.1803 C212.9038,206.6963 212.8458,205.9163 213.5928,206.0523 C214.3068,206.1813 213.9928,206.9383 213.9448,207.4003 C213.3768,212.8593 212.7368,218.3113 212.1938,223.7743 C211.5908,229.8413 211.2928,235.9273 211.6838,242.0173 C211.7538,243.1103 211.6058,244.9023 212.9008,245.0563 C214.2118,245.2153 214.5118,243.4813 214.7878,242.3903 C215.9048,237.9703 216.8718,233.5133 217.9528,229.0853 C218.5488,226.6383 219.3378,224.2513 220.7268,222.1123 C221.3828,221.1003 222.2078,220.2493 223.2208,219.5863 C223.5528,219.3693 223.8328,219.3913 224.0478,219.7423 C224.2178,220.0193 224.1028,220.2723 223.8918,220.4383 C219.5908,223.8333 219.2318,228.9863 217.9978,233.7303 C217.3488,236.2223 216.9268,238.7733 216.3138,241.2753 C216.0478,242.3573 215.6258,243.4183 215.1478,244.4273 C214.6608,245.4573 213.9868,246.5283 212.6548,246.3413 C211.2818,246.1473 211.0858,244.8273 210.8598,243.7583 C210.3358,241.2833 210.3418,238.7603 210.3968,236.2393" id="Fill-112" fill="#4E9DFF"></path>
                <path d="M244.3675,210.9053 C244.3445,212.1873 244.0335,213.3803 243.2625,214.4243 C241.6505,216.6033 238.8775,216.6253 237.2335,214.4683 C236.4465,213.4343 236.1305,212.2413 236.1015,210.9623 C236.0365,208.0303 237.8895,205.6033 240.2065,205.5813 C242.5245,205.5573 244.4035,207.9603 244.3675,210.9053" id="Fill-114" fill="#384872"></path>
                <path d="M94.8528,166.5107 C92.7248,166.3427 90.6288,166.7417 88.5158,166.8467 C88.0838,166.8677 87.4748,167.0037 87.4758,166.3057 C87.4768,165.8197 87.9638,165.7597 88.3688,165.7227 C93.2578,165.2857 98.1488,164.9997 102.9828,166.1497 C106.0758,166.8847 107.8218,168.4497 107.7658,170.4477 C107.6858,173.2797 105.3538,173.7997 103.3068,174.5037 C99.8728,175.6847 96.2748,176.3417 92.9168,177.7777 C88.3148,179.7457 85.0998,182.8847 84.0758,187.9597 C83.9878,188.3967 84.1518,189.2567 83.3708,189.1337 C82.3488,188.9727 83.0058,188.1667 83.0868,187.6997 C83.9628,182.6297 87.0988,179.3557 91.5838,177.1997 C94.6408,175.7297 97.9358,174.9687 101.1688,174.0247 C102.4348,173.6557 103.6928,173.2317 104.9028,172.7107 C105.8178,172.3167 106.6558,171.7487 106.6588,170.5397 C106.6628,169.3057 105.9208,168.5957 104.9478,168.0727 C102.7278,166.8807 100.2668,166.7297 97.8308,166.5247 C96.8438,166.4417 95.8448,166.5107 94.8528,166.5107" id="Fill-116" fill="#4E9DFF"></path>
                <path d="M107.5926,102.6514 C107.6196,105.1184 105.3386,107.4524 102.8096,107.5454 C100.6286,107.6254 98.8236,105.9394 98.7936,103.7924 C98.7596,101.2644 101.2076,98.8604 103.7796,98.8984 C105.8946,98.9294 107.5696,100.5784 107.5926,102.6514" id="Fill-118" fill="#101051"></path>
                <path d="M265.186763,84.0752 C265.1778,81.8552 266.8058,80.1692 268.9968,80.1282 C271.2238,80.0882 273.0818,81.8872 273.07482,84.0772 C273.0668,86.2622 271.1688,88.1172 268.9938,88.0682 C266.8648,88.0192 265.1948,86.2682 265.186763,84.0752" id="Fill-120" fill="#FEFEFD"></path>
                <path d="M226.2708,164.6987 C225.2598,163.6227 224.0318,162.6357 223.2628,161.3687 C222.8398,160.6727 224.0968,160.2347 224.6088,159.7057 C225.2498,159.0427 226.0018,158.4887 226.6988,157.8787 C229.1658,155.7177 230.1668,155.8957 231.7608,158.7357 C231.9878,159.1377 232.0808,159.4257 231.7198,159.7667 C230.1338,161.2677 228.5568,162.7767 226.9698,164.2747 C226.8328,164.4037 226.6438,164.4757 226.2708,164.6987" id="Fill-122" fill="#FDFDFD"></path>
            </g>
        </g>
    </g>
</svg>